# Blender v2.76 (sub 0) OBJ File: 'cubo.blend'
# www.blender.org
mtllib cubo.mtl
o Cube.002
v 2.000000 -0.000000 0.001682
v 2.000000 -0.000000 2.001682
v 0.000000 -0.000000 2.001682
v 0.000000 -0.000000 0.001682
v 2.000000 2.000000 0.001683
v 0.000000 2.000000 0.001682
v 0.000000 2.000000 2.001682
v 1.999999 2.000000 2.001683
vt 0.000000 0.333333
vt 0.000000 0.000000
vt 0.333333 0.000000
vt 0.333333 0.333333
vt 0.666667 0.333333
vt 0.666667 0.666667
vt 0.333333 0.666667
vt 0.000000 0.666667
vt 0.666667 0.000000
vt 1.000000 0.000000
vt 1.000000 0.333333
vt 0.333333 1.000000
vt 0.000000 1.000000
vn 0.000000 -1.000000 -0.000000
vn -0.000000 1.000000 0.000000
vn 1.000000 0.000000 0.000000
vn -0.000000 -0.000000 1.000000
vn -1.000000 0.000000 0.000000
vn 0.000000 0.000000 -1.000000
usemtl Material.002
s 1
f 1/1/1 2/2/1 3/3/1 4/4/1
f 5/5/2 6/6/2 7/7/2 8/4/2
f 1/4/3 5/7/3 8/8/3 2/1/3
f 2/5/4 8/9/4 7/10/4 3/11/4
f 3/4/5 7/3/5 6/9/5 4/5/5
f 5/8/6 1/7/6 4/12/6 6/13/6
