# Blender v2.76 (sub 0) OBJ File: 'grassyDungeon.blend'
# www.blender.org
mtllib grassyDungeon.mtl
o right_cube
v 2.000000 2.082202 2.851686
v 2.000000 0.082202 2.851686
v 2.000000 0.082202 0.851686
v 2.000000 2.082202 0.851686
vt 0.000000 1.000000
vt 0.000000 0.000000
vt 1.000000 0.000000
vt 1.000000 1.000000
vn 1.000000 -0.000000 0.000000
usemtl exit
s off
f 1/1/1 2/2/1 3/3/1 4/4/1
o top_cube
v 0.000000 2.082202 0.851686
v 0.000000 2.082202 2.851686
v 2.000000 2.082202 2.851686
v 2.000000 2.082202 0.851686
vt 1.000000 1.000000
vt 0.000000 1.000000
vt 0.000000 0.000000
vt 1.000000 0.000000
vn 0.000000 1.000000 0.000000
usemtl grass
s off
f 5/5/2 6/6/2 7/7/2 8/8/2
o front_cube
v 0.000000 2.082202 2.851686
v 0.000000 0.082202 2.851686
v 2.000000 0.082202 2.851686
v 2.000000 2.082202 2.851686
vt 0.009528 1.002396
vt 0.010306 -0.003174
vt 0.990472 -0.002396
vt 0.989694 1.003174
vn 0.000000 0.000000 1.000000
usemtl grassWall
s off
f 9/9/3 10/10/3 11/11/3 12/12/3
o left_cube
v 0.000000 2.082202 0.851686
v 0.000000 0.082202 0.851686
v 0.000000 0.082202 2.851686
v 0.000000 2.082202 2.851686
vt -0.000167 0.999833
vt 0.000167 -0.000167
vt 1.000167 0.000167
vt 0.999833 1.000167
vn -1.000000 0.000000 0.000000
usemtl entry
s off
f 13/13/4 14/14/4 15/15/4 16/16/4
o bottom_cube
v 0.000000 0.082202 2.851686
v 0.000000 0.082202 0.851686
v 2.000000 0.082202 0.851686
v 2.000000 0.082202 2.851686
vn 0.000000 -1.000000 -0.000000
usemtl white
s off
f 17//5 18//5 19//5 20//5
o back_cube
v 2.000000 2.082202 0.851686
v 2.000000 0.082202 0.851686
v 0.000000 0.082202 0.851686
v 0.000000 2.082202 0.851686
vt 0.000056 1.000057
vt -0.000056 0.000057
vt 0.987232 -0.000057
vt 0.987344 0.999943
vn 0.000000 0.000000 -1.000000
usemtl grassWall
s off
f 21/17/6 22/18/6 23/19/6 24/20/6
